<svg xmlns="http://www.w3.org/2000/svg" width="42.344" height="39.548" viewBox="0 0 42.344 39.548">
  <g id="Group_750" data-name="Group 750" transform="translate(11961 10091)">
    <path id="Path_617" data-name="Path 617" d="M19.824,33.823H39.155a1.411,1.411,0,0,0,1.3-.851L47.224,17.4a1.411,1.411,0,0,0-1.294-1.981H13.765l-2.094-4.808a1.411,1.411,0,0,0-1.3-.851H6.139A1.153,1.153,0,0,0,5,10.913v.052a1.153,1.153,0,0,0,1.153,1.153h3.6L18.3,31.767a4.013,4.013,0,0,0-2.479,4.1,4.1,4.1,0,0,0,4.121,3.613h20.7A1.157,1.157,0,0,0,41.8,38.33v-.052a1.153,1.153,0,0,0-1.157-1.153H19.871a1.689,1.689,0,0,1-1.665-1.308,1.656,1.656,0,0,1,1.618-1.995Z" transform="translate(-11966 -10100.76)" fill="#281e8f"/>
    <circle id="Ellipse_15" data-name="Ellipse 15" cx="4.069" cy="4.069" r="4.069" transform="translate(-11950.242 -10057.209) rotate(-45)" fill="#281e8f"/>
    <circle id="Ellipse_16" data-name="Ellipse 16" cx="4.069" cy="4.069" r="4.069" transform="translate(-11936.089 -10057.207) rotate(-45)" fill="#281e8f"/>
  </g>
</svg>
