<svg id="Group_738" data-name="Group 738" xmlns="http://www.w3.org/2000/svg" width="50" height="50" viewBox="0 0 50 50">
  <path id="Path_603" data-name="Path 603" d="M20.008,7.5V1.674a1.664,1.664,0,1,1,3.328,0V7.5h3.328V1.674a1.664,1.664,0,1,1,3.328,0V7.5H33.34V1.674a1.664,1.664,0,1,1,3.328,0V7.5h5a.829.829,0,0,1,.827.827v5h5.829a1.664,1.664,0,1,1,0,3.328H42.5v3.348h5.829a1.664,1.664,0,1,1,0,3.328H42.5v3.328h5.829a1.664,1.664,0,1,1,0,3.328H42.5V33.34h5.829a1.664,1.664,0,1,1,0,3.328H42.5v5a.829.829,0,0,1-.827.827h-5v5.829a1.664,1.664,0,1,1-3.328,0V42.5H29.992v5.829a1.664,1.664,0,1,1-3.328,0V42.5H23.336v5.829a1.664,1.664,0,1,1-3.328,0V42.5H16.66v5.829a1.664,1.664,0,1,1-3.328,0V42.5h-5A.829.829,0,0,1,7.5,41.67v-5H1.674a1.664,1.664,0,1,1,0-3.328H7.5V29.992H1.674a1.664,1.664,0,1,1,0-3.328H7.5V23.336H1.674a1.664,1.664,0,1,1,0-3.328H7.5V16.66H1.674a1.664,1.664,0,1,1,0-3.328H7.5v-5A.829.829,0,0,1,8.33,7.5h5V1.674a1.664,1.664,0,1,1,3.328,0V7.5h3.348Zm12.484,10H17.507V32.493H32.493Z" fill="#281e8f"/>
</svg>
