<svg xmlns="http://www.w3.org/2000/svg" width="46.536" height="40.719" viewBox="0 0 46.536 40.719">
  <g id="Group_754" data-name="Group 754" transform="translate(-8 -11)">
    <g id="Group_753" data-name="Group 753" transform="translate(8 11)">
      <path id="Path_624" data-name="Path 624" d="M25.655,17.1l1.254,1.254L28.162,17.1a.968.968,0,0,1,1.371,0l1.254,1.254L32.04,17.1a.967.967,0,0,1,.685-.284h.97V11H24v5.817h.97A.967.967,0,0,1,25.655,17.1Z" transform="translate(-8.488 -11)" fill="#281e8f"/>
      <path id="Path_625" data-name="Path 625" d="M48.32,32.165a.949.949,0,0,0-1.338.271l-3.228,4.827-1.1-1.105a.973.973,0,0,0-1.377,1.377l1.939,1.939a.973.973,0,0,0,.688.282h.1a.957.957,0,0,0,.708-.436L48.591,33.5A.958.958,0,0,0,48.32,32.165Z" transform="translate(-9.006 -11.64)" fill="#281e8f"/>
      <path id="Path_626" data-name="Path 626" d="M54.536,35.238a10.648,10.648,0,0,0-5.856-9.5,1.372,1.372,0,0,0,.039-.194V11.97a.972.972,0,0,0-.97-.97h-12.6v6.787a.969.969,0,0,1-.97.97H32.639l-1.655,1.655a.969.969,0,0,1-1.371,0L28.36,19.157l-1.254,1.254a.968.968,0,0,1-1.371,0L24.08,18.756H22.543a.97.97,0,0,1-.97-.97V11H8.97a.972.972,0,0,0-.97.97V50.75a.972.972,0,0,0,.97.97H47.75a.972.972,0,0,0,.97-.97V44.933a1.372,1.372,0,0,0-.039-.194A10.647,10.647,0,0,0,54.536,35.238ZM26.421,43.963a.97.97,0,1,1,0,1.939H14.787a.97.97,0,1,1,0-1.939h.97V37.578l-.284.284A.969.969,0,0,1,14.1,36.491l1.939-1.939a.968.968,0,0,1,1.371,0l1.939,1.939a.969.969,0,1,1-1.371,1.371l-.284-.284v6.385h5.817V37.578l-.284.284a.969.969,0,0,1-1.371-1.371L23.8,34.552a.968.968,0,0,1,1.371,0l1.939,1.939a.969.969,0,1,1-1.371,1.371l-.284-.284v6.385Zm17.451,0A8.726,8.726,0,1,1,52.6,35.238,8.739,8.739,0,0,1,43.872,43.963Z" transform="translate(-8 -11)" fill="#281e8f"/>
    </g>
  </g>
</svg>
