<svg xmlns="http://www.w3.org/2000/svg" width="48.685" height="40.431" viewBox="0 0 48.685 40.431">
  <g id="Group_752" data-name="Group 752" transform="translate(11968.89 9926)">
    <path id="Path_619" data-name="Path 619" d="M77.977,49.013v6.809a4.633,4.633,0,0,1-4.619,4.633H70.722a2.787,2.787,0,0,1-.819-.122,2.744,2.744,0,0,1-1.875-2.155A2.874,2.874,0,0,1,68,57.754V47.109a2.744,2.744,0,0,1,2.155-2.672,2.981,2.981,0,0,1,.567-.057h2.636a4.633,4.633,0,0,1,4.619,4.633Z" transform="translate(-11998.182 -9952.798)" fill="#281e8f"/>
    <path id="Path_620" data-name="Path 620" d="M59.787,37.484H57.481a2.981,2.981,0,0,0-.567.057,16.614,16.614,0,0,0-33.041,0,2.981,2.981,0,0,0-.567-.057H21a19.487,19.487,0,0,1,38.787,0Z" transform="translate(-11984.94 -9945.902)" fill="#281e8f"/>
    <path id="Path_621" data-name="Path 621" d="M24.087,47.109V57.754a2.729,2.729,0,0,1-2.729,2.729H18.729a4.633,4.633,0,0,1-4.619-4.633V49.013a4.633,4.633,0,0,1,4.619-4.633h2.636a2.98,2.98,0,0,1,.567.057,2.744,2.744,0,0,1,2.155,2.672Z" transform="translate(-11983 -9952.798)" fill="#281e8f"/>
    <path id="Path_622" data-name="Path 622" d="M53.972,70.341V68.186a2.464,2.464,0,0,0,0-.4A18.417,18.417,0,0,0,64.028,63.56,2.744,2.744,0,0,0,65.9,65.715a21.232,21.232,0,0,1-12,4.863,1.868,1.868,0,0,0,.072-.237Z" transform="translate(-11994.21 -9958.202)" fill="#281e8f"/>
    <path id="Path_623" data-name="Path 623" d="M50.619,69.014v2.155a1.868,1.868,0,0,1,0,.287,2.349,2.349,0,0,1-2.327,2.069H44.37A2.356,2.356,0,0,1,42,71.234V69.079a2.356,2.356,0,0,1,2.349-2.349h3.879a2.342,2.342,0,0,1,2.306,1.947h0a2.463,2.463,0,0,1,.086.338Z" transform="translate(-11990.857 -9959.095)" fill="#281e8f"/>
  </g>
</svg>
