<svg xmlns="http://www.w3.org/2000/svg" width="45.749" height="32.325" viewBox="0 0 45.749 32.325">
  <g id="Group_737" data-name="Group 737" transform="translate(-37 -75)">
    <path id="Path_601" data-name="Path 601" d="M73.918,76.766a5.688,5.688,0,0,1,2.12,10.952,8.908,8.908,0,0,1,6.712,8.655v5.476a21.7,21.7,0,0,1-10.422,1.766V98.493a12.3,12.3,0,0,0-4.063-9.009,8.8,8.8,0,0,1,3.356-1.766,5.876,5.876,0,0,1-3.533-5.3A5.731,5.731,0,0,1,73.918,76.766Zm-27.909,0a5.688,5.688,0,0,1,2.12,10.952,7.686,7.686,0,0,1,3.356,1.766A12.139,12.139,0,0,0,47.6,98.493v5.123A22.4,22.4,0,0,1,37,101.849V96.373a9.066,9.066,0,0,1,6.889-8.655,5.649,5.649,0,0,1,2.12-10.952ZM59.963,75a6.862,6.862,0,0,1,6.712,6.889,6.979,6.979,0,0,1-4.239,6.359,10.6,10.6,0,0,1,8.125,10.245v6.712a27.556,27.556,0,0,1-21.2,0V98.493a10.45,10.45,0,0,1,7.949-10.245,6.979,6.979,0,0,1-4.239-6.359A6.9,6.9,0,0,1,59.963,75Z" transform="translate(0 0)" fill="#281e8f" fill-rule="evenodd"/>
  </g>
</svg>
