<?xml version="1.0" encoding="utf-8"?>
<!-- Generator: Adobe Illustrator 22.1.0, SVG Export Plug-In . SVG Version: 6.00 Build 0)  -->
<svg version="1.1" id="Layer_1" xmlns="http://www.w3.org/2000/svg" xmlns:xlink="http://www.w3.org/1999/xlink" x="0px" y="0px"
	 viewBox="0 0 133.1 44.1" style="enable-background:new 0 0 133.1 44.1;" xml:space="preserve">
<style type="text/css">
	.st0{fill:#281E8F;}
	.st1{enable-background:new    ;}
</style>
<g id="Group_766" transform="translate(-679.598 -170.863)">
	<path id="Path_1" class="st0" d="M690.9,205.5"/>
	<g id="Group_1" transform="translate(679.598 186)">
		<path id="Path_2" class="st0" d="M14.3,6.3L14.1,7c-0.6,2-2.5,3.5-4,3.5C8.3,10.5,7.6,8.9,8,7c0.5-2.1,2.2-3.9,4.2-3.9
			C13.5,3.1,14.5,4.5,14.3,6.3 M37.1,22.9c-10.5,0-16.8-3.1-21.8-5.2c0.2-0.8,0.6-2.4,1-4.3l0-0.1l0-0.1c1.2-5.3,3-12.9,3-12.9
			l-2.1,0h-1.5l0,0h0c0,0-0.1,0.5-0.3,1.2l-0.1,0.5c-0.6-1.3-2-2.2-3.4-2.1C8,0,5.3,3.4,4.6,6.6c-0.8,3.4,0.4,7,4.4,7
			c1.6,0,3-0.7,4.1-1.9c-0.1,0.6-0.3,1.1-0.4,1.7l-0.7,3.2c-1-0.3-2.1-0.5-3.2-0.5c-8.2,0-8.7,8.3-8.7,8.3s2.1,2.5,6.6,2.5
			c3.3,0.2,6.4-1.9,7.4-5l-0.1,0c-1-0.5-2.1-0.9-3-1.3l0,0l0,0c-0.6,1.6-1.9,2.7-3.6,3.2c-1.5,0.3-3,0-4.3-0.7
			c0.5-2.4,2.6-4.2,5.1-4.2c0.9,0,1.7,0.2,2.5,0.4c0.2,0.1,0.4,0.1,0.6,0.2l0,0c1,0.3,2,0.8,3.2,1.3c1.6,0.8,3.5,1.7,5.6,2.5l0,0
			c5.3,2.2,11,3.3,16.8,3.3c7.4,0.1,14.5-2.9,19.6-8.3h-1.9C49.2,21.4,43.2,23,37.1,22.9"/>
	</g>
	<g id="Group_2" transform="translate(753.274 170.863)">
		<path id="Path_3" class="st0" d="M51.9,10.9c4.5,0,7.5-2.2,7.5-6.3C59.4,2.1,57.5,0,55,0c-0.2,0-0.3,0-0.5,0
			c-3,0.1-5.4,2.6-6.5,6.4c1.1,0.4,2.2,0.7,3.4,0.9c0.7-2.7,1.9-4.3,3.3-4.3c1,0,1.7,0.8,1.7,1.7c0,0,0,0,0,0.1
			c0,2.5-2.7,3.7-4.6,3.7c-0.2,0-0.5,0-0.7,0c-1.2-0.2-2.3-0.5-3.4-0.9l0,0C41.5,5.4,31.7,0.1,21,0.1C11.4,0.1,3.6,5.8,0,9h2
			c5.9-3.2,12.5-5,19.2-5.1c9.6,0,18.8,4.6,25.9,6.3c0,0.1-0.1,0.2-0.1,0.3C46.6,12.4,43,28.4,43,28.4v0h3.6l1.6-7.1
			c0.3-1.7,1.6-3,3.3-3.1c1,0,2,0.6,1.5,2.9l-1.7,7.3h3.6l1.6-7.1c1.2-5.3-1.5-6.2-3.8-6.2c-1.3,0-2.6,0.6-3.5,1.6
			c0.5-2.1,0.9-4,1.4-5.9C51,10.9,51.5,10.9,51.9,10.9"/>
	</g>
	<path id="Path_4" class="st0" d="M702.4,199.3l1.5-6.4c0.7-2.9,2.1-3.8,3.4-3.8c0.6,0,1.2,0.3,1.5,0.8l2.6-2.5
		c-0.7-0.9-1.8-1.4-3-1.4c-1.3,0.1-2.5,0.7-3.4,1.6l0.3-1.3h-3.6l-3,12.9H702.4z M718.8,188.8c1.2-0.1,2.2,0.8,2.4,2
		c0,0.2,0,0.3,0,0.5h-6.1C715.8,189.8,717.2,188.9,718.8,188.8 M716.9,199.6c2.5,0,4.9-1.1,6.5-3.1l-2.4-1.5
		c-0.9,1.1-2.2,1.7-3.6,1.8c-1.4,0.2-2.7-0.9-2.9-2.3c0-0.2,0-0.5,0-0.7h9.4c0.1-0.3,0.2-0.7,0.3-1.1c0.9-3.9-1.1-6.7-5.1-6.7
		c-3.8,0.2-7,2.9-7.8,6.6C710.2,197.1,713.4,199.6,716.9,199.6 M765.5,186c-1.3,0.1-2.5,0.7-3.4,1.6l0.3-1.3h-3.6l-3,12.9h3.6
		l1.5-6.4c0.7-2.9,2.1-3.8,3.4-3.8c0.6,0,1.2,0.3,1.5,0.8l2.6-2.5C767.7,186.5,766.6,186,765.5,186 M777.7,193.5
		c-0.2,1.7-1.6,2.9-3.3,3.1c-1.2,0-2-0.6-1.5-2.9l1.7-7.3H771l-1.6,7.1c-1.2,5.3,1.7,6.2,3.8,6.2c1.4,0,2.6-0.6,3.5-1.7l-0.4,1.3
		h3.6l3-12.9h-3.6L777.7,193.5z M790.8,188.8c1,0.1,2,0.5,2.8,1.1l1.9-2.4c-1.4-1-3.1-1.6-4.8-1.5c-2.3,0-4.3,1.6-4.9,3.8
		c-0.4,1.6,0.7,2.9,2.2,3.5l1.8,0.8c0.9,0.4,1.1,0.9,0.9,1.4c-0.2,0.8-0.9,1.3-1.7,1.3c-1.4-0.2-2.7-0.7-3.8-1.5l-1.8,2.4
		c1.6,1.1,3.5,1.8,5.4,1.9c2.5,0.1,4.8-1.6,5.4-4.1c0.2-1.6-0.8-3.1-2.3-3.6l-2.1-0.9c-0.5-0.1-0.8-0.7-0.6-1.2c0,0,0,0,0,0
		C789.5,189.2,790.1,188.8,790.8,188.8 M736.4,191.3h-6.1c0.7-1.4,2.2-2.4,3.8-2.4c1.2-0.1,2.2,0.8,2.4,2
		C736.4,190.9,736.4,191.1,736.4,191.3 M734.3,186c-3.8,0.2-7,2.9-7.8,6.6c-0.9,4,1.4,6.4,4.4,6.9c0.4,0.1,0.9,0.1,1.3,0.1
		c1.8,0,3.6-0.6,5.1-1.7c0.5-0.4,1-0.9,1.4-1.4l-2.4-1.5c-0.9,1.1-2.2,1.7-3.6,1.8c-1.4,0.2-2.7-0.9-2.9-2.3c0-0.2,0-0.5,0-0.7h9.4
		c0.1-0.3,0.2-0.7,0.3-1.1C740.3,188.8,738.3,186,734.3,186 M752.8,186.3c-0.6-0.2-1.3-0.3-2-0.3c-1.4,0-2.6,0.6-3.5,1.6l0.3-1.3
		H744l-2.7,11.6l-0.3,1.3h3.6l1.6-7.1c0.3-1.7,1.6-3,3.3-3.1c1.2,0,2,0.6,1.5,2.9l-1.7,7.3h3.6l1.6-7.1
		C755.4,188.4,754.3,186.9,752.8,186.3"/>
	<g class="st1">
		<path class="st0" d="M743.9,204.4h3c2.2,0,3.2,1.7,2.8,3.8c-0.4,2.1-1.9,3.8-4.1,3.8h-3L743.9,204.4z M744.7,210.3h1.2
			c1.1,0,1.8-1,2-2.1c0.2-1.1-0.2-2.2-1.2-2.2h-1.2L744.7,210.3z"/>
		<path class="st0" d="M752.3,212l1.3-7.6h4.9l-0.3,1.6h-3.1l-0.3,1.5h2.7l-0.3,1.6h-2.7l-0.2,1.3h3.2l-0.3,1.6H752.3z"/>
		<path class="st0" d="M760.7,212l1.3-7.6h1.9l-1.1,6h2.7l-0.3,1.6H760.7z"/>
		<path class="st0" d="M769.7,204.4h1.8l-1.3,7.6h-1.8L769.7,204.4z"/>
		<path class="st0" d="M774.5,204.4h1.9l0.4,4.6l2-4.6h1.9l-3.7,7.6h-1.6L774.5,204.4z"/>
		<path class="st0" d="M782.4,212l1.3-7.6h4.9l-0.3,1.6h-3.1l-0.3,1.5h2.7l-0.3,1.6h-2.7l-0.2,1.3h3.2l-0.3,1.6H782.4z"/>
		<path class="st0" d="M790.7,212l1.3-7.6h3.1c1.8,0,2.4,1.3,2.1,2.5c-0.2,1.1-1,2.1-2.2,2.4l1.4,2.6h-2.1l-1.2-2.5H793l-0.4,2.5
			H790.7z M793.6,206l-0.3,1.9h1.2c0.6,0,0.9-0.5,1-0.9s0-0.9-0.6-0.9H793.6z"/>
		<path class="st0" d="M801.4,212l0.6-3.4l-2.2-4.2h2.2l1.2,2.8l2.2-2.8h2.2l-3.7,4.2l-0.6,3.4H801.4z"/>
	</g>
</g>
</svg>
