<svg xmlns="http://www.w3.org/2000/svg" xmlns:xlink="http://www.w3.org/1999/xlink" width="501.947" height="372.606" viewBox="0 0 501.947 372.606">
  <defs>
    <clipPath id="clip-path">
      <path id="Path_444" data-name="Path 444" d="M2.7,26.353C20.939-14.876,136.928-7.33,172.617,46.191s-5.1,172.426-41.66,172.426S94.4,138.337,79.32,114.76-15.548,67.582,2.7,26.353Z" transform="translate(0 0)" fill="#4040e5" clip-rule="evenodd"/>
    </clipPath>
    <clipPath id="clip-path-2">
      <path id="Path_446" data-name="Path 446" d="M55.427,175.872c40.4,0,84.975-38.666,84.975-87.936S95.83,0,55.427,0,0,56.386,0,96.8,15.024,175.872,55.427,175.872Z" transform="translate(0 0)" fill="none" clip-rule="evenodd"/>
    </clipPath>
    <clipPath id="clip-path-3">
      <path id="Path_442" data-name="Path 442" d="M37.3,118.345c27.187,0,57.18-26.018,57.18-59.173S64.484,0,37.3,0,0,37.942,0,65.134,10.11,118.345,37.3,118.345Z" transform="translate(0 0)" fill="none" clip-rule="evenodd"/>
    </clipPath>
  </defs>
  <g id="Group_728" data-name="Group 728" transform="translate(10220.396 13556.036)">
    <g id="Group_724" data-name="Group 724" transform="translate(-9958.258 -13500.869)">
      <g id="Group_719" data-name="Group 719" transform="translate(0 22.942)">
        <path id="Path_352" data-name="Path 352" d="M116.9,226.661l27.555-15.95V167.1L116.9,183.05Z" transform="translate(-73.395 -163.285)" fill="#281e8f"/>
        <path id="Path_353" data-name="Path 353" d="M34.8,230.811l43.5,5.3V192.5l-43.5-5.3Z" transform="translate(-34.8 -172.734)" fill="#4040e5"/>
        <path id="Path_354" data-name="Path 354" d="M34.8,174.366l43.5,5.3,27.555-15.95L66.329,159.9Z" transform="translate(-34.8 -159.9)" fill="#1f28cf"/>
        <g id="Group_336" data-name="Group 336" transform="translate(5.193 27.098)">
          <path id="Path_355" data-name="Path 355" d="M59.066,216.952l-.159.477c-.689,1.749-2.6,3.02-3.921,2.861-1.7-.159-2.226-1.7-1.643-3.338a4.3,4.3,0,0,1,4.133-3.126,2.341,2.341,0,0,1,1.59,3.126m16.374,7.26c-2.438,3.285-5.67,5.246-9.75,4.769a16.126,16.126,0,0,1-6.624-2.279c.159-.424.318-1.007.583-1.643,1.537-4.4,4.451-12.982,4.451-12.982l-1.908-.159-1.378-.159h-.053s-.159.371-.371,1.06l-.159.477a3.234,3.234,0,0,0-2.861-2.226c-3.444-.371-6.147,2.438-7.1,5.246-1.007,2.967-.265,6.359,3.338,6.73a4.967,4.967,0,0,0,3.815-1.325c-.159.424-.265.795-.424,1.219l-.106.265-.795,2.226a17.758,17.758,0,0,0-2.861-.636c-7.366-.795-8.637,6.624-8.637,6.624s1.59,2.438,5.723,2.861a6.774,6.774,0,0,0,7.26-4.027,16.3,16.3,0,0,0-2.755-1.272,4.778,4.778,0,0,1-3.55,2.6,5.326,5.326,0,0,1-3.762-1.06,4.692,4.692,0,0,1,4.981-3.179c.159,0,.318.053.477.053h0a7.5,7.5,0,0,1,1.06.212h.053c.318.106.636.159.954.265h.053c.053,0,.106.053.159.053h0a22.8,22.8,0,0,1,2.808,1.325h0c.636.318,1.272.689,1.908,1.007a.052.052,0,0,1,.053.053A13.438,13.438,0,0,0,65,231.843c5.14.53,8.955-2.544,11.552-7.525Z" transform="translate(-44.6 -211.037)" fill="#fff"/>
          <path id="Path_356" data-name="Path 356" d="M78.4,225.947h0v.106c.053.265.742.583,1.59.636.848.106,1.537-.053,1.59-.318l2.332-6.73c.742-2.12,1.908-2.967,2.914-3.126H87.3a1.478,1.478,0,0,1,1.272.9l2.544-2.014a3.425,3.425,0,0,0-2.544-1.537,3.266,3.266,0,0,0-1.537.212,4.212,4.212,0,0,0-1.7.954l.424-1.113-3.232-.318L78.4,225.947Z" transform="translate(-60.489 -212.242)" fill="#fff"/>
        </g>
      </g>
      <g id="standing-13" transform="translate(16.566 0)">
        <g id="humaaan-5" transform="translate(0)">
          <g id="Head_Front_Long" data-name="Head/Front/Long" transform="matrix(-0.966, -0.259, 0.259, -0.966, 139.584, 70.801)">
            <path id="Hair-Back" d="M35.049,35.713C37.757,25.931,41.342,3.5,37.727,0H14.989l-.007.121A16.86,16.86,0,0,0,0,16.875V32.9A16.857,16.857,0,0,0,16.857,49.754h1.568A16.862,16.862,0,0,0,35.049,35.713Z" transform="translate(10.977 10.085)" fill="#191847" fill-rule="evenodd"/>
            <g id="Head-2" data-name="Head" transform="translate(13.329 0)">
              <path id="Path_434" data-name="Path 434" d="M6.478,29.927C2.865,34.13.42,39.282.829,45.054c1.177,16.631,24.535,12.972,29.078,4.578s4-29.686-1.868-31.186c-2.342-.6-7.33.867-12.408,3.9L18.818,0H0Z" transform="translate(0 0)" fill="#b28b67" fill-rule="evenodd"/>
            </g>
            <path id="Hair-Front" d="M24.894,22.274C25.761,13.044,25.414,2.5,22.83,0H.092C-1.175,21.817,11.069,13.368,11.069,33.909c.763.739,1.485,1.471,2.2,2.1l-.025.6Q19.148,48.6,28.228,48.6c9.08,0,11.945-4.187,14.385-7.743-1.825-6.205-8.906-7.126-15.2-10.994A4.291,4.291,0,1,1,24.7,22.27Q24.8,22.27,24.894,22.274Z" transform="translate(0 10.462)" fill="#191847" fill-rule="evenodd"/>
          </g>
          <g id="Bottom_Standing_Skirt" data-name="Bottom/Standing/Skirt" transform="translate(13.588 126.872)">
            <path id="Skirt-Shadow" d="M192.226,101.143Q164.012,109,143.542,109A65.665,65.665,0,0,1,105.514,96.9q27.61-8.069,45.476-8.069T192.226,101.143Z" transform="translate(-59.255 -20.754)" fill="#cc9e05" fill-rule="evenodd"/>
            <path id="Leg-3" data-name="Leg" d="M167.235,92.025a4.413,4.413,0,0,0,.456-.887c2.514-6.623,42.785-78.075,46.8-91.138H169.149c-3.05,9.932-16.78,72.261-18.712,84.7-6.1,19.616-18.648,83.144-20.25,87.545-1.686,4.63,7.8,9.453,10.326,3.761,4.022-9.057,13.6-34.116,17.87-49.417C162.382,112.241,165.639,99.336,167.235,92.025Z" transform="translate(-99.231 3.779)" fill="#997659" fill-rule="evenodd"/>
            <path id="Leg-4" data-name="Leg" d="M38.445,100.749c18.411,4.635,85.755,13.015,90.377,14.33,4.754,1.352,8.922-8.409,3.046-10.524-9.35-3.364-35.114-11.138-50.734-14.311C68.569,87.692,57.1,85.61,49.407,84.391,50.059,62.853,53.04,11.164,51.086,0H10.969c1.874,10.705,17.712,88.818,20.656,96.636C32.559,99.428,35.346,100.661,38.445,100.749Z" transform="translate(66.653 3.779)" fill="#b28b67" fill-rule="evenodd"/>
            <g id="Accessories_Shoe_Flat-Sneaker" data-name="Accessories/Shoe/Flat-Sneaker" transform="translate(209.655 106.356) rotate(100)">
              <path id="shoe-3" data-name="shoe" d="M1.316,11.446A16.835,16.835,0,0,1,0,6.19,39.342,39.342,0,0,1,.707,0H44.929q1.724,5.7-1.99,6.153t-6.17.821L16.214,16.137a.784.784,0,0,1-1.035-.4l-.009-.02-1.321-3.2a14.1,14.1,0,0,0-5.588-1.6,12.654,12.654,0,0,0-4.824,1.411h0a1.568,1.568,0,0,1-2.079-.772Q1.335,11.5,1.316,11.446Z" transform="translate(0 0)" fill="#ededf1" fill-rule="evenodd"/>
            </g>
            <g id="Accessories_Shoe_Flat-Sneaker-2" data-name="Accessories/Shoe/Flat-Sneaker" transform="translate(0 174.362)">
              <path id="shoe-4" data-name="shoe" d="M45.243,25.7a16.835,16.835,0,0,1,1.316,5.256,39.342,39.342,0,0,1-.707,6.19H1.63q-1.724-5.7,1.99-6.153t6.17-.821l20.554-9.163a.784.784,0,0,1,1.035.4l.009.02,1.321,3.2a14.1,14.1,0,0,0,5.588,1.6,12.654,12.654,0,0,0,4.824-1.411h0A1.568,1.568,0,0,1,45.2,25.6Q45.223,25.648,45.243,25.7Z" transform="translate(-1.083 -20.941)" fill="#ededf1" fill-rule="evenodd"/>
            </g>
            <path id="Skirt" d="M172.783-1.442Q146.266-9,122.6-1.442C117.115,23.5,103.779,33.4,101.434,71.647c26.658,13.195,59.589-9.41,87.031,3.457C196.305,57.106,185.328,13.761,172.783-1.442Z" transform="translate(-55.174 5.22)" fill="#ffc400" fill-rule="evenodd"/>
          </g>
          <g id="Body_Pointing-Forward" data-name="Body/Pointing-Forward" transform="translate(138.4 168.551) rotate(-170)">
            <path id="Skin-2" data-name="Skin" d="M0,24.452,27.215,39.284a73.076,73.076,0,0,0,12.92,11.968c-.539-3.054-.886-6.605-1.251-8.673-.513-1.257-.729-2.411-.216-2.959,1.118-1.194,4.114.369,5.448-1.615q1.334-1.984-14.292-6.27L10.05,13.718ZM42.623,11.937l11.954,6.535Q57.094,28,60.593,28.058c1.792.83-1.329-7.2,2.068-6.5s11.689,6.832,13.117,5.586c2.114-1.843.229-7.5-1.992-10.319-4.15-5.262-7.586-7.062-16.08-9.418A46.776,46.776,0,0,1,43.3,0Z" transform="translate(63.834 55.233)" fill="#997659" fill-rule="evenodd"/>
            <path id="Sleeve" d="M4.309,19.015a67.114,67.114,0,0,1,37.035,4.938l3.412-12.508C34.071,3.783,19.891-1.656,8.58.461-.333,2.129-3.2,13.629,4.309,19.015Z" transform="translate(49.299 63.533) rotate(9)" fill="#281e8f" fill-rule="evenodd"/>
            <path id="Clothes-2" data-name="Clothes" d="M63.416,64.033q15.18-3.767,50.911,8.885,8.863-18.245,8.194-26.015c-20.435-10.622-37.949-15.357-52.378-15.67.459-8.52-.584-16.626-4.084-24.034-7.2-15.228-49.34-1.125-63.51-3.9-8.874,28.676,8.284,40.33,8.3,58.679C10.86,82.07,27.074,113,29.46,113H51.215C52.415,97.653,58.457,80.741,63.416,64.033Z" transform="translate(0 0)" fill="#4040e5" fill-rule="evenodd"/>
          </g>
        </g>
      </g>
    </g>
  </g>
</svg>
