<svg xmlns="http://www.w3.org/2000/svg" xmlns:xlink="http://www.w3.org/1999/xlink" width="501.947" height="372.606" viewBox="0 0 501.947 372.606">
  <defs>
    <clipPath id="clip-path">
      <path id="Path_444" data-name="Path 444" d="M2.7,26.353C20.939-14.876,136.928-7.33,172.617,46.191s-5.1,172.426-41.66,172.426S94.4,138.337,79.32,114.76-15.548,67.582,2.7,26.353Z" transform="translate(0 0)" fill="#4040e5" clip-rule="evenodd"/>
    </clipPath>
    <clipPath id="clip-path-2">
      <path id="Path_446" data-name="Path 446" d="M55.427,175.872c40.4,0,84.975-38.666,84.975-87.936S95.83,0,55.427,0,0,56.386,0,96.8,15.024,175.872,55.427,175.872Z" transform="translate(0 0)" fill="none" clip-rule="evenodd"/>
    </clipPath>
    <clipPath id="clip-path-3">
      <path id="Path_442" data-name="Path 442" d="M37.3,118.345c27.187,0,57.18-26.018,57.18-59.173S64.484,0,37.3,0,0,37.942,0,65.134,10.11,118.345,37.3,118.345Z" transform="translate(0 0)" fill="none" clip-rule="evenodd"/>
    </clipPath>
  </defs>
  <g id="Group_728" data-name="Group 728" transform="translate(10220.396 13556.036)">
    <g id="standing-16" transform="translate(-10176.211 -13506.659)">
      <g id="humaaan-4" transform="translate(0 0)">
        <g id="Head_Front_Curly" data-name="Head/Front/Curly" transform="translate(70.891 0)">
          <g id="Head" transform="translate(18.818 13.329)">
            <path id="Path_433" data-name="Path 433" d="M6.478,27.042C2.865,22.8.42,17.6.829,11.781,2.006-5,25.363-1.307,29.907,7.162s4,29.95-1.868,31.464c-2.342.6-7.33-.875-12.408-3.935l3.187,22.546H0Z" transform="translate(0 0)" fill="#b28b67" fill-rule="evenodd"/>
          </g>
          <path id="hair" d="M89.557,23.916a4.07,4.07,0,0,0-2.85-2.89,3.754,3.754,0,0,0-1.049-.1c-.126.005-.162.042-.221-.047a1.16,1.16,0,0,1-.063-.3,5.707,5.707,0,0,0-.213-.707A5.766,5.766,0,0,0,83.771,17.8a7,7,0,0,0-4.205-1.99,6.131,6.131,0,0,0-2.528.345,10.011,10.011,0,0,0-1.227.525c-.12.06-.508.354-.628.335s-.4-.351-.507-.434a7.432,7.432,0,0,0-4.643-1.414c-1.875.014-3.681.108-5.246,1.251a10.49,10.49,0,0,0-.947.786c-.158.147-.311.3-.457.458q-.132.144-.257.294c-.14.171-.118.227-.314.108a3.9,3.9,0,0,0-2.5-.563,5.6,5.6,0,0,0-1.511.427c-.164.07-.544.35-.719.353s-.548-.257-.727-.323a5.959,5.959,0,0,0-3.021-.28,7.8,7.8,0,0,0-2.962,1.165,3.981,3.981,0,0,0-1.1,1c-.129.178-.246.367-.392.532-.086.1-.255.2-.3.318a6.5,6.5,0,0,0-1.255-.554,3.092,3.092,0,0,0-1.766.067,7.024,7.024,0,0,0-2.785,1.979,7.908,7.908,0,0,0-1.031,1.384q-.21.357-.386.732a2.724,2.724,0,0,1-.169.382c-.1.141-.161.143-.336.2a5.433,5.433,0,0,0-2.314,1.549,5.334,5.334,0,0,0-1.2,2.54,1.294,1.294,0,0,1-.048.313c-.044.041-.223.023-.29.031a6.1,6.1,0,0,0-.7.123,5.74,5.74,0,0,0-1.223.44,6.389,6.389,0,0,0-3.132,3.74,7.587,7.587,0,0,0,.119,5.194,5.074,5.074,0,0,0,.386.761c.092.148.122.149.062.3-.067.173-.189.342-.268.511a7.332,7.332,0,0,0-.554,1.736,8.145,8.145,0,0,0-.1,3,4.334,4.334,0,0,0,.464,1.317,3.778,3.778,0,0,0,.406.589c.08.095.165.186.253.273a1.689,1.689,0,0,1,.16.149c.105.135.127.024.073.223a8.887,8.887,0,0,1-.353.822c-.109.278-.207.561-.3.845a12.469,12.469,0,0,0-.431,1.762,5.533,5.533,0,0,0,.391,3.423,3.424,3.424,0,0,0,.969,1.153,3.594,3.594,0,0,0,.636.386c.115.055.263.078.315.19s-.027.358-.047.492a8.206,8.206,0,0,0,.1,3.536,4.885,4.885,0,0,0,1.936,2.6,6.024,6.024,0,0,0,6.021.171,6.322,6.322,0,0,0,1.344-.924c1.031,1.388,3.153,1.344,4.66.949a6.694,6.694,0,0,0,4.252-3.514,2.833,2.833,0,0,0,4.5-.591,3.751,3.751,0,0,0,.38-1.234c.031-.225.011-.452.034-.675a3.488,3.488,0,0,1,.329-.836,4.615,4.615,0,0,0,.35-1.666,8.458,8.458,0,0,0-.064-.895,3.074,3.074,0,0,1,.091-.786,3.6,3.6,0,0,1-1.522-.19,3.005,3.005,0,0,1-1.177-.828,6.865,6.865,0,0,1-1.48-2.767c-.669-2.192-.395-4.821,1.81-6.024,1.027-.56,4.1-.558,5.327-.282,1.286.291,2.744,3.129,2.816,3.4.044.165.022.369.174.479.333.242.883-.178,1.129-.385a4.452,4.452,0,0,0,.989-1.315,16.274,16.274,0,0,0,1.356-3.327c.251-.887.411-1.8.739-2.665a4.076,4.076,0,0,1,1.639-2.115,14.434,14.434,0,0,1,2.82-1.142A7,7,0,0,0,76.3,34.285a3.606,3.606,0,0,0,.448-.5c.1-.143.2-.417.36-.508.243-.141.6.226.807.359a9.323,9.323,0,0,1,2.6,2.576,16.031,16.031,0,0,1,1.723,3.068A8.87,8.87,0,0,0,83.39,41.84a4.89,4.89,0,0,0,2.917.221A3.685,3.685,0,0,0,87.9,40.684a2.139,2.139,0,0,0,.181-1.4c-.056-.283-.17-.547-.233-.825a2.571,2.571,0,0,0-.214-.668,1.646,1.646,0,0,0-1.026-.818,4.82,4.82,0,0,0,1.108-1.5,6.452,6.452,0,0,0,.574-1.959,2.378,2.378,0,0,0-.318-1.526,4.017,4.017,0,0,0-1.3-1.081,8.473,8.473,0,0,0,1.813-1.975A6.166,6.166,0,0,0,89.557,23.916Z" transform="translate(-32.497 -15.165)" fill="#191847" fill-rule="evenodd"/>
        </g>
        <g id="Bottom_Standing_Skinny-Jeans-Walk" data-name="Bottom/Standing/Skinny-Jeans-Walk" transform="translate(0 135.661)">
          <path id="Leg" d="M138.653,0l37.7,99.754,26.424,73.524h15.067L181.52,0Z" transform="translate(-55.208)" fill="#8d1c5e" fill-rule="evenodd"/>
          <path id="Leg-2" data-name="Leg" d="M102.71,0c-.41,34.228-.114,80.31-1.068,82.443q-.955,2.134-59.4,48.619l7.766,13.206q69.383-44.744,72.93-50.7C126.489,87.6,144.311,32.745,153.583,0Z" transform="translate(-28.583)" fill="#ff29a6" fill-rule="evenodd"/>
          <g id="Accessories_Shoe_Flat-Pointy" data-name="Accessories/Shoe/Flat-Pointy" transform="matrix(0.643, 0.766, -0.766, 0.643, 12.613, 129.365)">
            <path id="Shoe" d="M0,16.465.784,0H17.249Q28.96,8.233,47.828,13.329v3.136H18.033L7.841,14.9v1.568Z" transform="translate(0 0)" fill="#191847" fill-rule="evenodd"/>
          </g>
          <g id="Accessories_Shoe_Flat-Pointy-2" data-name="Accessories/Shoe/Flat-Pointy" transform="translate(146.169 170.926)">
            <path id="Shoe-2" data-name="Shoe" d="M0,37.047.784,20.581H17.249Q28.96,28.814,47.828,33.91v3.136H18.033L7.841,35.478v1.568Z" transform="translate(0 -20.581)" fill="#191847" fill-rule="evenodd"/>
          </g>
        </g>
        <g id="Body_Long-Sleeve" data-name="Body/Long-Sleeve" transform="translate(14.572 53.324)">
          <path id="Skin" d="M155.974,66.465l30.957-4.223a67.484,67.484,0,0,1,17.091-7c1.464-.043,3.792.489.323,3.381s-6.988,6.091-6.37,7.634,3.844.969,4.378,3.343q.534,2.374-15.706.771l-25.119,9.959ZM58.726,73.63l17.169.064q-28.239,63.549-29.449,66.546c-1.814,4.5,2.025,11.344,3.667,15.024-5.347,2.393-4.778-6.469-11.523-3.33-6.157,2.864-10.841,8.055-17.954,3.665-.875-.54-1.833-2.571.483-4.159,5.769-3.956,14.082-10.879,15.206-13.158Q38.622,133.622,58.726,73.63Z" transform="translate(-19.674 -15.257)" fill="#997659" fill-rule="evenodd"/>
          <path id="Clothes-Back" d="M0,.279,13.47,0c5.909,29.55,25.522,46.825,65.185,36.926L87.36,74.883C50.192,83.03,15.906,70.864,5.584,30.705,2.912,20.309.571,9.452,0,.279Z" transform="translate(86.103 3.642) rotate(5)" fill="#afb9c5" fill-rule="evenodd"/>
          <path id="Clothes" d="M106.373.012l20.367,4.665c0,35.031,11.159,57.382,16.883,83.138H88.616c-.775,8.9-1.251,18.047-1.5,27.442H45.93Q59.93,40.768,105.029,0h1.334Z" transform="translate(-26.926)" fill="#c5cfd6" fill-rule="evenodd"/>
          <path id="Shade" d="M113.582,52.276q-2.126,32.744,2.5,49.977H104.9a269.359,269.359,0,0,1,8.679-49.977Z" transform="translate(-43.213 -14.437)" fill="rgba(0,0,0,0.1)" fill-rule="evenodd"/>
        </g>
      </g>
    </g>
  </g>
</svg>
