<svg xmlns="http://www.w3.org/2000/svg" width="44.599" height="45.601" viewBox="0 0 44.599 45.601">
  <g id="Group_748" data-name="Group 748" transform="translate(12056.01 10343)">
    <path id="Path_613" data-name="Path 613" d="M27.422,43.28V16.052a3.97,3.97,0,0,1,.1-.884H25.558a4.021,4.021,0,0,0-4.008,4.009V46.4a4.021,4.021,0,0,0,4.008,4.009h20.8a4.023,4.023,0,0,0,3.907-3.125H31.43A4.02,4.02,0,0,1,27.422,43.28Z" transform="translate(-12069.676 -10353.016)" fill="#281e8f"/>
    <path id="Path_614" data-name="Path 614" d="M11.847,53.5V26.27a3.984,3.984,0,0,1,.089-.831H10A4.02,4.02,0,0,0,5.99,29.447V56.675A4.02,4.02,0,0,0,10,60.684H30.8a4.021,4.021,0,0,0,3.92-3.177H15.856A4.021,4.021,0,0,1,11.847,53.5Z" transform="translate(-12062 -10358.083)" fill="#281e8f"/>
    <path id="Path_615" data-name="Path 615" d="M77.1,16.414h6.857L75.109,7.1v7.317A2,2,0,0,0,77.1,16.414Z" transform="translate(-12096.098 -10349.038)" fill="#281e8f"/>
    <path id="Path_616" data-name="Path 616" d="M58.372,17.4a4.024,4.024,0,0,1-4.02-4.019V5h-13.2a4.021,4.021,0,0,0-4.008,4.009V36.237a4.02,4.02,0,0,0,4.008,4.009h20.8a4.021,4.021,0,0,0,4.009-4.009V17.4Zm1.7,16.672H43.016V32.047H60.077Zm0-5.69H43.016V26.357H60.077Zm0-5.686H43.016V20.671H60.077Z" transform="translate(-12077.366 -10348)" fill="#281e8f"/>
  </g>
</svg>
