<svg xmlns="http://www.w3.org/2000/svg" width="42.207" height="47.288" viewBox="0 0 42.207 47.288">
  <g id="Group_751" data-name="Group 751" transform="translate(-11.621 -959.362)">
    <path id="Path_618" data-name="Path 618" d="M35.156,959.362a8.611,8.611,0,0,0-2.938.516,8.889,8.889,0,0,0-2.131-.258,8.747,8.747,0,0,0-8.815,8.609v4.863H16.838a1.1,1.1,0,0,0-1.1.962L11.632,1005.4a1.1,1.1,0,0,0,1.1,1.255h40a1.1,1.1,0,0,0,1.083-1.255l-4.09-31.342a1.1,1.1,0,0,0-1.1-.962H43.971v-4.829a8.891,8.891,0,0,0-8.815-8.9Zm.5,2.217a6.686,6.686,0,0,1,6.117,6.684v4.829H38.884v-4.863a8.528,8.528,0,0,0-3.23-6.65Zm-6.633.309a8.966,8.966,0,0,0-2.681,6.375v4.829h-2.87v-4.863A6.51,6.51,0,0,1,29.021,961.888Zm3.316.309a6.451,6.451,0,0,1,4.347,6.031v4.863H28.54v-4.829A6.738,6.738,0,0,1,32.338,962.2Z" transform="translate(0 0)" fill="#281e8f" fill-rule="evenodd"/>
  </g>
</svg>
