<svg xmlns="http://www.w3.org/2000/svg" width="45.402" height="53.737" viewBox="0 0 45.402 53.737">
  <path id="Path_607" data-name="Path 607" d="M54,38.835a25.662,25.662,0,0,0-11.515-2.961,23.1,23.1,0,0,0-5.234.63,31.971,31.971,0,0,0,7.386-5.424A34.221,34.221,0,0,0,52.7,17.433,34.211,34.211,0,0,0,39.056,25.5a30.994,30.994,0,0,0-4.471,5.732,39.787,39.787,0,0,0,1.652-11.038A42.77,42.77,0,0,0,31.3,1a42.77,42.77,0,0,0-4.935,19.192,39.807,39.807,0,0,0,1.651,11.037A31.011,31.011,0,0,0,23.546,25.5,34.217,34.217,0,0,0,9.9,17.432,34.207,34.207,0,0,0,17.963,31.08,31.962,31.962,0,0,0,25.351,36.5a23.111,23.111,0,0,0-5.236-.63A25.662,25.662,0,0,0,8.6,38.835,25.662,25.662,0,0,0,20.115,41.8a24.1,24.1,0,0,0,7.093-1.135,15.3,15.3,0,0,0-2.576,2.051A17.11,17.11,0,0,0,20.6,49.536,17.106,17.106,0,0,0,27.423,45.5,16.013,16.013,0,0,0,30.2,41.677v13.06H32.4V41.68a16.053,16.053,0,0,0,2.781,3.826A17.11,17.11,0,0,0,42,49.538a17.106,17.106,0,0,0-4.032-6.824,15.258,15.258,0,0,0-2.577-2.052A24.112,24.112,0,0,0,42.486,41.8,25.668,25.668,0,0,0,54,38.835Zm-22.7.548h-.075l.03-.082.046.082.046-.081c.009.026.02.054.029.081Z" transform="translate(-8.6 -1)" fill="#281e8f"/>
</svg>
