<svg xmlns="http://www.w3.org/2000/svg" width="53.377" height="45.052" viewBox="0 0 53.377 45.052">
  <g id="Group_747" data-name="Group 747" transform="translate(12004.5 10639)">
    <ellipse id="Ellipse_12" data-name="Ellipse 12" cx="6.431" cy="6.436" rx="6.431" ry="6.436" transform="translate(-12004.5 -10622.267)" fill="#281e8f"/>
    <ellipse id="Ellipse_13" data-name="Ellipse 13" cx="6.431" cy="6.436" rx="6.431" ry="6.436" transform="translate(-11974.917 -10639)" fill="#281e8f"/>
    <ellipse id="Ellipse_14" data-name="Ellipse 14" cx="6.431" cy="6.436" rx="6.431" ry="6.436" transform="translate(-11974.917 -10606.82)" fill="#281e8f"/>
    <path id="Path_612" data-name="Path 612" d="M61.157,31.733a6.427,6.427,0,0,0-6.018,4.183H48.78a8.343,8.343,0,0,0-10.85-6.323l-2.336-3.735a6.394,6.394,0,1,0-2.722,1.713l2.26,3.613a8.361,8.361,0,0,0,.143,12.808l-2.295,3.526a6.455,6.455,0,1,0,2.692,1.759l2.444-3.755A8.36,8.36,0,0,0,48.78,39.135h6.027a6.428,6.428,0,1,0,6.351-7.4ZM40.578,42.674a5.149,5.149,0,1,1,5.145-5.149A5.153,5.153,0,0,1,40.578,42.674Z" transform="translate(-12018.711 -10654)" fill="#281e8f"/>
  </g>
</svg>
