<svg xmlns="http://www.w3.org/2000/svg" width="50.402" height="50.547" viewBox="0 0 50.402 50.547">
  <path id="Path_602" data-name="Path 602" d="M2.548,40l2.113.372a10.963,10.963,0,0,0,1.085,2.635L4.522,44.766A1.627,1.627,0,0,0,4.7,46.832L5.974,48.1a1.627,1.627,0,0,0,2.067.181L9.8,47.049a10.984,10.984,0,0,0,2.661,1.116l.372,2.113a1.627,1.627,0,0,0,1.6,1.348h1.8a1.627,1.627,0,0,0,1.6-1.348l.372-2.113a10.979,10.979,0,0,0,2.635-1.1L22.6,48.3a1.627,1.627,0,0,0,2.067-.181l1.271-1.271a1.627,1.627,0,0,0,.181-2.067l-1.235-1.762a10.947,10.947,0,0,0,1.1-2.635l2.113-.372a1.627,1.627,0,0,0,1.348-1.6V36.6A1.627,1.627,0,0,0,28.1,35l-2.108-.382a10.942,10.942,0,0,0-1.1-2.635l1.235-1.762a1.627,1.627,0,0,0-.181-2.067L24.681,26.87a1.627,1.627,0,0,0-2.067-.181l-1.782,1.245a10.978,10.978,0,0,0-2.635-1.1l-.372-2.113a1.627,1.627,0,0,0-1.6-1.348H14.431a1.627,1.627,0,0,0-1.6,1.348l-.367,2.113a10.978,10.978,0,0,0-2.635,1.1L8.066,26.7A1.627,1.627,0,0,0,6,26.88L4.713,28.146a1.627,1.627,0,0,0-.181,2.067l1.214,1.782a10.947,10.947,0,0,0-1.08,2.624l-2.118.372a1.627,1.627,0,0,0-1.348,1.6v1.793A1.627,1.627,0,0,0,2.548,40ZM15.325,32.31a5.166,5.166,0,1,1-5.166,5.166,5.166,5.166,0,0,1,5.166-5.166Zm25.63,12.027V37.518H38.81a.641.641,0,0,1-.517-1L42.5,30.275a.641.641,0,0,1,.517-.284h0a.641.641,0,0,1,.517.284l4.216,6.246a.641.641,0,0,1-.517,1H45.067v8.876A2.067,2.067,0,0,1,43,48.46H30.586a.925.925,0,0,1-.925-.925V45.262a.925.925,0,0,1,.925-.925Zm9.3-26.632A1.627,1.627,0,0,0,51.6,16.1V14.311a1.627,1.627,0,0,0-1.348-1.6l-2.113-.372A10.963,10.963,0,0,0,47.076,9.7l1.235-1.762a1.627,1.627,0,0,0-.181-2.067L46.849,4.583A1.627,1.627,0,0,0,44.783,4.4L43.005,5.637a10.968,10.968,0,0,0-2.645-1.1L40,2.428A1.627,1.627,0,0,0,38.4,1.08H36.6A1.627,1.627,0,0,0,35,2.428l-.372,2.113a10.968,10.968,0,0,0-2.635,1.1L30.229,4.4a1.627,1.627,0,0,0-2.067.181L26.876,5.854A1.627,1.627,0,0,0,26.7,7.92L27.93,9.682a10.952,10.952,0,0,0-1.1,2.635l-2.113.372a1.627,1.627,0,0,0-1.348,1.6v1.793a1.627,1.627,0,0,0,1.348,1.6l2.118.372a10.937,10.937,0,0,0,1.1,2.635L26.7,22.453a1.627,1.627,0,0,0,.181,2.067l1.261,1.317a1.627,1.627,0,0,0,2.067.181l1.762-1.235a10.958,10.958,0,0,0,2.635,1.1l.372,2.113a1.627,1.627,0,0,0,1.6,1.348h1.8a1.627,1.627,0,0,0,1.6-1.348l.382-2.123A10.957,10.957,0,0,0,43,24.773l1.762,1.235a1.627,1.627,0,0,0,2.067-.181l1.286-1.266a1.627,1.627,0,0,0,.181-2.067l-1.214-1.782a10.937,10.937,0,0,0,1.08-2.624ZM37.5,20.4a5.166,5.166,0,1,1,5.166-5.166A5.166,5.166,0,0,1,37.5,20.4ZM11.868,8.37v6.819h2.144a.641.641,0,0,1,.517,1l-4.19,6.246a.641.641,0,0,1-.517.284h0a.641.641,0,0,1-.517-.284L5.075,16.186a.641.641,0,0,1,.517-1H7.74V6.313A2.067,2.067,0,0,1,9.807,4.247h12.43a.925.925,0,0,1,.925.925V7.445a.925.925,0,0,1-.925.925Z" transform="translate(-1.2 -1.08)" fill="#281e8f"/>
</svg>
