<svg xmlns="http://www.w3.org/2000/svg" width="64.199" height="22.086" viewBox="0 0 64.199 22.086">
  <g id="Group_739" data-name="Group 739" transform="translate(12296.5 11038)">
    <path id="Path_604" data-name="Path 604" d="M77.508,53.639A4.292,4.292,0,1,0,81.8,57.93,4.295,4.295,0,0,0,77.508,53.639Z" transform="translate(-12321.93 -11078.137)" fill="#281e8f"/>
    <path id="Path_605" data-name="Path 605" d="M19.084,53.639a4.292,4.292,0,1,0,4.29,4.291A4.3,4.3,0,0,0,19.084,53.639Z" transform="translate(-12302.986 -11078.137)" fill="#281e8f"/>
    <path id="Path_606" data-name="Path 606" d="M66.29,47.171a4.24,4.24,0,0,0-1.675-2.383A31.639,31.639,0,0,0,53.47,41.513c-.743-.069-1.931-.235-1.931-.235s-6.211-4.822-12.1-6.643-18.017-.527-19.063-.429c-2.477.22-9.216,5.213-9.216,5.213S3.8,40.75,3.237,41.254,2.482,44.216,2.5,46.5s.426,5.428.426,5.428l6.116.367A6.077,6.077,0,0,1,15.1,45.34a6.2,6.2,0,0,1,6.118,6.211,7.264,7.264,0,0,1-.274,1.9H48.738a7.249,7.249,0,0,1-.274-1.9A6.119,6.119,0,1,1,60.7,51.484a5.977,5.977,0,0,1-.2,1.533c1.22.052,5.691.217,6.036-.018C66.932,52.726,66.515,47.92,66.29,47.171ZM20.226,40.93s-.07-3.731.935-4.651,7.55-.684,7.865-.707a.693.693,0,0,1,.636.651c.024.329.367,5.27.367,5.27Zm23.719,1.018-11.407-.284s-1.1-5.488-1.143-5.71.159-.381.508-.381a36.206,36.206,0,0,1,7.384,1.272,25.856,25.856,0,0,1,6.076,3.315Z" transform="translate(-12299 -11071.669)" fill="#281e8f"/>
  </g>
</svg>
